<svg width="24" height="24" viewBox="0 0 24 24" fill="none" xmlns="http://www.w3.org/2000/svg">
<path d="M12.56 2.17029C12.3946 2.05851 12.1996 1.99878 12 1.99878C11.8004 1.99878 11.6054 2.05851 11.44 2.17029C11.14 2.37029 4.25 7.17029 4.25 14.2503C4.25 16.3057 5.06652 18.277 6.51992 19.7304C7.97333 21.1838 9.94457 22.0003 12 22.0003C14.0554 22.0003 16.0267 21.1838 17.4801 19.7304C18.9335 18.277 19.75 16.3057 19.75 14.2503C19.75 7.05029 12.85 2.36029 12.56 2.17029ZM12 20.0003C10.4758 19.9976 9.01482 19.391 7.93706 18.3132C6.85929 17.2355 6.25264 15.7745 6.25 14.2503C6.25 9.25029 10.46 5.48029 12 4.25029C13.55 5.46029 17.75 9.25029 17.75 14.2503C17.7474 15.7745 17.1407 17.2355 16.0629 18.3132C14.9852 19.391 13.5242 19.9976 12 20.0003Z" fill="#414853"/>
</svg>
